HIERARCHY
ROOT Hips
{
  OFFSET 40.9192 92.6879 18.85
  CHANNELS 6 Xposition Yposition Zposition Zrotation Xrotation Yrotation
  JOINT LeftUpLeg
  {
    OFFSET 8.64259 1.95398 -2.38835
    CHANNELS 3 Zrotation Xrotation Yrotation
    JOINT LeftLeg
    {
      OFFSET 43.7702 0 0
      CHANNELS 3 Zrotation Xrotation Yrotation
      JOINT LeftFoot
      {
        OFFSET 40.6238 0 0
        CHANNELS 3 Zrotation Xrotation Yrotation
        JOINT LeftToeBase
        {
          OFFSET 12.7242 0 0
          CHANNELS 3 Zrotation Xrotation Yrotation
          End Site
          {
            OFFSET 0 0 0
          }
        }
      }
    }
  }
  JOINT RightUpLeg
  {
    OFFSET -8.2249 1.95398 -2.59336
    CHANNELS 3 Zrotation Xrotation Yrotation
    JOINT RightLeg
    {
      OFFSET 43.5653 0 0
      CHANNELS 3 Zrotation Xrotation Yrotation
      JOINT RightFoot
      {
        OFFSET 40.6238 0 0
        CHANNELS 3 Zrotation Xrotation Yrotation
        JOINT RightToeBase
        {
          OFFSET 12.7242 0 0
          CHANNELS 3 Zrotation Xrotation Yrotation
          End Site
          {
            OFFSET 0 0 0
          }
        }
      }
    }
  }
  JOINT Spine
  {
    OFFSET 0.165834 0.87714 6.61349
    CHANNELS 3 Zrotation Xrotation Yrotation
    JOINT Spine1
    {
      OFFSET 7.38963 1.71661e-005 0
      CHANNELS 3 Zrotation Xrotation Yrotation
      JOINT Spine2
      {
        OFFSET 11.9445 1.14441e-005 0
        CHANNELS 3 Zrotation Xrotation Yrotation
        JOINT Spine3
        {
          OFFSET 14.7254 4.19617e-005 0
          CHANNELS 3 Zrotation Xrotation Yrotation
          JOINT Spine4
          {
            OFFSET 10.9679 0 0
            CHANNELS 3 Zrotation Xrotation Yrotation
            JOINT RightShoulder
            {
              OFFSET 2.46616 -1.6653 3.69651
              CHANNELS 3 Zrotation Xrotation Yrotation
              JOINT RightArm
              {
                OFFSET 13.0012 0 0
                CHANNELS 3 Zrotation Xrotation Yrotation
                JOINT RightForeArm
                {
                  OFFSET 28.7848 1.52588e-005 0
                  CHANNELS 3 Zrotation Xrotation Yrotation
                  JOINT RightHand
                  {
                    OFFSET 26.5688 1.52588e-005 0
                    CHANNELS 3 Zrotation Xrotation Yrotation
                    End Site
                    {
                      OFFSET 0 0 0
                    }
                  }
                }
              }
            }
            JOINT LeftShoulder
            {
              OFFSET 2.38034 -1.29275 -3.7523
              CHANNELS 3 Zrotation Xrotation Yrotation
              JOINT LeftArm
              {
                OFFSET 16.3182 6.10351e-005 0
                CHANNELS 3 Zrotation Xrotation Yrotation
                JOINT LeftForeArm
                {
                  OFFSET 27.0901 0 0
                  CHANNELS 3 Zrotation Xrotation Yrotation
                  JOINT LeftHand
                  {
                    OFFSET 24.5451 1.52588e-005 0
                    CHANNELS 3 Zrotation Xrotation Yrotation
                    End Site
                    {
                      OFFSET 0 0 0
                    }
                  }
                }
              }
            }
            JOINT Neck
            {
              OFFSET 5.0226 -0.0266342 0
              CHANNELS 3 Zrotation Xrotation Yrotation
              JOINT Head
              {
                OFFSET 6.69363 2.86102e-005 0
                CHANNELS 3 Zrotation Xrotation Yrotation
                End Site
                {
                  OFFSET 0 0 0
                }
              }
            }
          }
        }
      }
    }
  }
}
MOTION
Frames:	14
Frame Time:	0.0416667
17.6012 71.8395 -301.122 -9.74949 17.6301 39.8304 21.2289 43.8304 -83.2028 -116.1 -40.8808 -16.5128 -35.8587 -71.3041 -130.313 -113.274 -23.204 -68.4063 1.1296 20.0039 -123.739 -15.4876 3.95059 16.773 54.2399 15.536 2.17635 107.271 68.7369 81.5941 -2.90049 -7.53885 -90.6784 42.0763 -5.53627 1.51402 30.416 -5.46425 1.75684 7.78573 -5.73451 -0.225297 27.7984 -5.7345 -0.225298 131.509 -33.1508 -27.7311 65.4014 10.4951 -37.1562 -117.924 -69.0927 -164.716 -26.5511 -11.4339 63.2737 -94.43 -30.5051 65.2142 -46.0115 53.4261 9.53054 -19.8463 -7.50799 -45.2444 56.3982 -4.40798 -12.0294 -1.96638 -10.3659 -14.4717 -27.7395 -9.95532 4.74418 
17.2835 72.6677 -298.037 -5.43072 11.393 32.26 30.1516 56.9239 -101.586 -107.872 -63.0362 -9.5253 -15.6385 -57.19 -94.2204 -76.5608 19.4238 -80.8602 10.7212 25.7638 -128.732 -11.4576 -3.68153 29.4579 55.2894 9.92328 0.100082 103.749 68.717 85.3359 -2.8087 -5.93718 -92.8649 38.6927 -6.92287 -2.7665 27.0381 -7.03784 -2.45792 4.41367 -5.77114 -4.7231 24.4263 -5.77113 -4.7231 114.198 -48.8234 -63.2257 56.5639 17.2348 -43.529 -109.324 -63.8047 -155.484 -26.7846 -11.3507 66.4521 -85.3669 -45.0852 84.7471 -46.0409 46.6364 20.8449 -4.15024 -2.41136 -61.4772 56.2423 -1.90847 -7.56505 -8.96575 1.00612 -1.70514 -12.3481 0.580749 3.98259 
16.0831 75.5284 -295.117 -2.1146 0.686035 21.0688 54.354 75.9038 -129.837 -90.7048 -76.7189 -2.64928 1.16181 -38.0697 -58.0789 20.6565 12.7536 -149.161 29.7523 40.4428 -137.405 8.28748 -12.248 41.2295 48.6402 4.83591 -3.30256 103.544 68.8657 85.7183 -2.39136 -3.48516 -93.3997 33.7929 -6.64334 -4.62527 22.1313 -6.84018 -4.32799 -0.418862 -4.94955 -6.40621 19.5938 -4.94956 -6.40621 87.1689 -48.5988 -105.369 -2.08768 -28.4634 -48.3392 -24.3287 -25.1341 -52.587 -34.2441 -18.6593 57.1901 -71.8495 -51.8215 106.132 -40.5271 35.7223 21.9196 14.6588 -0.525052 -76.7584 44.948 1.23808 -1.18366 -8.50077 7.64441 10.992 -2.67762 7.21078 -1.72281 
14.4926 83.2658 -290.867 -0.760187 -13.5506 5.47971 -176.967 77.1215 102.417 -89.7557 -76.8155 -19.2135 4.21455 -29.6331 -40.9852 32.655 2.35694 -151.555 26.6343 55.7391 -114.392 -18.934 -25.1466 12.2726 64.5469 -1.04111 -3.82455 101.457 68.3075 87.3921 -0.705537 -1.49878 -90.819 29.6562 -1.92694 -1.35253 17.9858 -1.98456 -1.26642 -4.5494 -1.4315 -1.86901 15.4632 -1.4315 -1.869 88.0936 -50.0072 -103.738 -7.07713 -41.0614 -40.4099 -43.7393 -4.87104 -56.5455 -37.0214 -5.86778 15.1722 -84.5374 -52.9224 87.2796 -37.0443 21.9732 27.334 19.7683 -2.61644 -86.129 35.9764 2.31433 2.50952 -3.09529 4.83673 7.10036 -0.583781 4.16344 -2.30433 
11.6549 89.4063 -290.271 -1.51927 -30.5357 -12.5329 -151.16 64.434 76.9202 -79.9134 -60.6784 -14.1686 10.7531 -18.9384 -46.0058 15.7181 8.11845 -90.521 16.5469 77.5399 -94.8329 -30.9766 -30.5987 -5.12226 70.8221 -4.52652 -5.32662 96.4239 67.5992 92.2595 0.632376 1.29819 -88.5151 24.2508 2.07109 2.50647 12.5793 2.17937 2.41293 -9.94213 1.22244 3.01266 10.0705 1.22244 3.01265 92.8112 -46.8753 -97.0878 16.3481 -34.5055 -18.0749 -54.3303 3.58234 -74.3842 -41.2417 5.40894 -13.8929 -90.1507 -49.1975 78.3272 -36.6189 18.801 29.2848 17.4577 -3.45838 -88.6235 35.2672 2.27133 2.55249 6.57809 2.13802 2.65621 -2.62828 1.63883 -0.86516 
10.524 90.9523 -290.616 -4.78269 -48.0315 -26.1954 -145.134 54.984 69.0232 -71.4934 -16.2102 -9.28351 44.1998 -9.38102 -24.7252 26.0676 8.94531 16.3687 178.548 88.8335 101.61 -52.5202 -33.6898 -13.6813 81.6495 -9.42829 -6.53909 84.1844 65.9253 105.144 1.14987 3.71418 -87.1171 19.3507 3.79629 5.09913 7.67588 4.01676 4.92749 -14.7951 2.09157 6.00141 5.21757 2.09158 6.00141 94.6414 -43.5118 -94.7046 30.6938 -29.8428 -2.80789 -47.9214 10.1195 -88.6522 -46.4106 7.7695 -18.5948 -90.3982 -46.0156 77.2196 -39.2535 19.3213 33.7608 17.3303 -4.63728 -91.0014 36.7343 2.40139 2.64444 8.96947 0.227659 2.13748 -2.66623 -0.220101 -1.83142 
11.6728 92.6531 -287.562 -6.94727 -64.018 -27.3894 -153.831 47.4905 74.4515 -59.2025 13.6088 -9.14951 52.1661 -4.52441 5.07746 35.8118 5.5069 13.6948 -174.804 75.0119 90.1238 -69.2435 -29.1386 -16.2305 95.6327 -15.9805 -8.27278 70.0585 61.6011 119.936 0.935409 5.46466 -87.2496 15.8655 3.23619 5.01503 4.18945 3.45351 4.86813 -18.2782 1.58225 5.75339 1.73443 1.58225 5.7534 94.5021 -41.1499 -95.3555 36.8355 -28.9355 3.55675 -32.641 6.73198 -97.8829 -51.7315 3.83542 -10.5406 -88.9358 -44.0414 79.0735 -43.2494 19.1263 39.9444 13.9311 -5.74473 -93.2676 34.783 1.94714 1.59451 9.47913 -0.531351 3.21558 -3.33987 -1.19405 -3.51278 
13.6888 95.1106 -282.103 -2.37738 -75.366 -16.3294 -164.665 42.9705 83.4607 -47.8693 13.1659 -6.19319 49.1475 -6.93625 -2.55561 35.7612 5.45028 16.1229 174.987 59.6466 90.5704 -72.6605 -29.0627 -6.37177 108.243 -22.8124 -5.03607 57.4765 55.4741 134.731 0.758636 6.49077 -88.0577 13.8433 2.45099 3.56824 2.17011 2.60556 3.45705 -20.3324 1.26631 4.13897 -0.319739 1.26631 4.13898 95.1986 -40.6328 -94.2356 37.2782 -31.144 4.10101 -25.2907 2.7194 -100.043 -47.94 0.54748 -4.85986 -88.8412 -41.6127 78.6677 -47.4854 18.2365 45.4899 14.9871 -6.81257 -93.9687 29.9273 1.4096 0.824117 9.35535 -1.55223 3.2027 -4.24162 -2.16956 -4.34253 
15.6467 96.3789 -275.753 -1.60892 -80.8019 -10.2244 -169.175 37.9939 88.4485 -32.4146 18.6409 -4.96293 43.63 -10.5719 -6.87648 39.9097 10.0806 20.5128 172.367 45.9388 91.4432 -75.0645 -27.4623 -3.71739 119.121 -26.0914 -2.31878 45.7763 41.1967 148.826 0.953901 7.01082 -88.7146 12.8234 2.50965 2.26954 1.15308 2.60708 2.15687 -21.3766 1.71185 2.91854 -1.36395 1.71185 2.91853 95.4134 -39.3054 -94.0833 38.9279 -31.7106 5.48405 -25.3643 5.31831 -103.686 -29.5872 -0.1047 -3.85172 -88.9824 -40.2163 78.1015 -50.2528 18.0878 48.3708 12.6318 -6.65775 -95.1618 37.5533 1.69309 0.537721 10.6018 -2.3606 3.47693 -5.01582 -3.02222 -4.42961 
17.2086 97.0528 -268.686 -5.46241 -83.1326 -10.9437 -170.113 34.1964 90.8292 -20.3401 19.9585 -4.93301 43.8972 -10.9276 -4.76327 39.6688 9.24347 12.2931 173.956 34.059 92.8074 -75.6714 -20.8042 -4.84077 126.697 -26.4808 -0.649042 38.9104 19.8902 158.176 1.19344 7.22695 -89.0689 12.4003 2.81387 1.53901 0.731582 2.87887 1.41361 -21.8129 2.22134 2.31364 -1.80021 2.22134 2.31363 95.9731 -39.4718 -93.0618 38.2878 -32.4246 6.3575 -23.9335 7.93986 -104.21 -28.7194 -0.248605 -3.40433 -89.2238 -39.6299 77.5502 -50.8346 17.1005 49.1527 14.6905 -7.15767 -95.6806 34.8322 1.75442 1.10263 11.9665 -2.92919 2.45444 -5.02393 -3.39615 -3.8708 
18.287 96.5427 -260.966 -14.5761 -84.9457 -19.7218 -169.574 29.9614 90.8937 -14.7825 15.8523 -5.644 42.3694 -11.0871 -10.3082 46.5377 16.426 15.347 177.073 23.4895 92.6657 -75.6871 -11.8736 -5.92197 129.984 -26.9909 0.035895 33.6814 -21.2542 162.207 1.21553 7.42893 -89.1366 11.9988 2.82402 1.41492 0.330269 2.88354 1.28918 -22.216 2.26828 2.19838 -2.20331 2.26827 2.19837 95.4727 -39.5259 -93.9416 38.0052 -32.0498 7.61621 -24.0021 5.9728 -101.966 -23.8844 0.138597 -5.30061 -88.6371 -40.3305 78.7081 -50.6608 16.3912 47.4999 13.792 -6.6702 -95.8022 37.4062 1.97272 1.33047 13.0237 -2.72029 2.22119 -5.15687 -3.1551 -3.2706 
19.2536 95.4441 -253.589 -33.4199 -86.7469 -39.4191 -169.222 26.5333 89.5963 -16.8232 16.9691 -5.63158 43.1009 -10.984 -8.46634 44.8156 14.5646 14.8061 179.292 15.4259 91.6593 -76.9768 -4.90832 -5.56345 126.141 -27.7555 -0.836187 2.12918 -73.2426 129.817 1.11151 7.60541 -89.0478 11.6434 2.65734 1.62202 -0.0256884 2.72615 1.50345 -22.567 2.04712 2.34568 -2.55434 2.04711 2.34566 95.0263 -40.4862 -94.5608 38.171 -30.9966 9.81094 -22.3229 2.96193 -99.2918 -26.874 -0.179916 -3.84779 -88.1838 -41.7085 79.7763 -48.6108 14.65 44.2206 13.8991 -5.93576 -95.0093 36.6286 1.80665 0.98165 12.5441 -2.28888 1.68044 -5.07465 -2.60878 -2.85308 
20.3945 94.2944 -246.5 -96.8945 -87.5688 -102.612 -168.677 24.0606 89.3713 -27.2117 21.787 -6.3422 54.043 -3.78448 4.15256 36.4413 6.04009 2.2397 179.022 10.9274 90.5656 -81.7634 -3.80812 -4.31028 114.241 -25.3484 -3.34014 -103.059 -45.0958 11.9502 1.03455 7.8269 -89.0912 11.2019 2.48162 1.56551 -0.467502 2.54812 1.45474 -23.0074 1.89649 2.23895 -2.99471 1.8965 2.23894 95.0109 -42.1127 -94.3111 37.6418 -29.6742 12.1507 -19.8022 -1.00204 -95.1249 -30.9101 -0.495682 -2.59471 -89.258 -43.3528 78.396 -45.7198 12.8566 40.8745 13.8142 -5.29242 -94.6696 36.8866 1.87512 1.13746 10.1212 -1.84579 0.688091 -3.01272 -1.98094 -1.95123 
21.2626 92.3395 -239.505 -130.387 -86.9839 -136.05 -168.035 22.7434 88.9656 -38.6301 19.1474 -6.12301 63.9753 5.18565 7.87739 35.7116 5.45706 -1.57285 179.653 14.2716 91.4533 -91.0027 -0.186962 -3.39788 92.0114 -17.694 -5.75982 -76.0596 -12.307 2.71403 0.724892 7.97623 -89.0577 10.9061 1.87909 1.69813 -0.764511 1.952 1.61378 -23.2968 1.28198 2.18423 -3.28413 1.28199 2.18423 94.5722 -43.7331 -94.7793 37.4044 -27.4235 13.7595 -18.1365 -6.72332 -88.9945 -29.543 -0.105015 -3.97365 -90.1975 -45.3391 77.3677 -41.8479 11.7668 35.6773 13.9659 -4.60965 -94.0345 37.476 2.02626 1.45432 7.58555 -0.881553 -0.889737 0.708233 -0.720279 -0.277456 
